<svg width="980" height="270" viewBox="0 0 980 270" fill="none" xmlns="http://www.w3.org/2000/svg" role="img" aria-labelledby="title desc">
  <title id="title">AW Tickets dark logo</title>
  <desc id="desc">AW Tickets wordmark for dark backgrounds.</desc>
  <g transform="translate(72 55)">
    <path d="M11 24C11 16.268 17.268 10 25 10H166C173.732 10 180 16.268 180 24V116C180 123.732 173.732 130 166 130H25C17.268 130 11 123.732 11 116V94C22.598 94 32 84.598 32 73C32 61.402 22.598 52 11 52V24Z" fill="#F4EFE6"/>
    <path d="M137 10V130" stroke="#202124" stroke-width="3" stroke-dasharray="7 8"/>
    <g transform="translate(-18 0)">
      <path d="M43 104L70.5 33H88.5L116 104H97.5L91.5 87.5H67.5L61.5 104H43ZM72.1 73.8H86.9L79.5 53.1L72.1 73.8Z" fill="#202124"/>
      <path d="M91 33H107.5L117 76.5L130 33H145L158 76.5L167.5 33H184L166 104H150.5L137.5 60.5L124.5 104H109L91 33Z" fill="#202124"/>
    </g>
    <g transform="translate(225 18)">
      <text x="0" y="67" fill="#F4EFE6" font-family="Inter, Avenir Next, Montserrat, Arial, sans-serif" font-size="72" font-weight="800" letter-spacing="3">AW TICKETS</text>
      <g transform="translate(1 102)">
        <rect x="0" y="0" width="126" height="4" fill="#00A0B6"/>
        <rect x="146" y="1.5" width="346" height="1" fill="#7B7F83"/>
      </g>
      <text x="0" y="148" fill="#B9C2CC" font-family="Inter, Avenir Next, Montserrat, Arial, sans-serif" font-size="14" font-weight="800" letter-spacing="8">VERIFIED FESTIVAL RESALE</text>
    </g>
  </g>
</svg>
