<svg width="980" height="190" viewBox="0 0 980 190" fill="none" xmlns="http://www.w3.org/2000/svg" role="img" aria-labelledby="title desc">
  <title id="title">AW Tickets horizontal logo</title>
  <desc id="desc">Horizontal AW Tickets wordmark with centered ticket mark.</desc>
  <g transform="translate(70 34)">
    <path d="M9 21C9 14.373 14.373 9 21 9H145C151.627 9 157 14.373 157 21V99C157 105.627 151.627 111 145 111H21C14.373 111 9 105.627 9 99V80.5C19.77 80.5 28.5 71.77 28.5 61C28.5 50.23 19.77 41.5 9 41.5V21Z" fill="#202124"/>
    <path d="M120 9V111" stroke="#F4EFE6" stroke-width="3" stroke-dasharray="6 7"/>
    <g transform="translate(-15 0)">
      <path d="M37 89L60.5 27H76L99.5 89H83.5L78.5 75H58L53 89H37ZM62.1 63.3H74.9L68.5 45L62.1 63.3Z" fill="#F4EFE6"/>
      <path d="M78 27H92L100.5 65L111.6 27H124.4L135.5 65L144 27H158L142.4 89H129.2L118 50.7L106.8 89H93.6L78 27Z" fill="#F4EFE6"/>
    </g>
    <g transform="translate(202 12)">
      <text x="0" y="57" fill="#202124" font-family="Inter, Avenir Next, Montserrat, Arial, sans-serif" font-size="64" font-weight="800" letter-spacing="2.5">AW TICKETS</text>
      <text x="1" y="101" fill="#405064" font-family="Inter, Avenir Next, Montserrat, Arial, sans-serif" font-size="13" font-weight="800" letter-spacing="7.5">VERIFIED FESTIVAL RESALE</text>
    </g>
  </g>
</svg>
